<?xml version="1.0" encoding="UTF-8" standalone="no"?>
<!-- Created with Inkscape (http://www.inkscape.org/) -->

<svg
   width="104.25075mm"
   height="102.48437mm"
   viewBox="0 0 104.25075 102.48437"
   version="1.1"
   id="svg5"
   inkscape:version="1.1.2 (0a00cf5339, 2022-02-04)"
   sodipodi:docname="grafana_icon.svg"
   xmlns:inkscape="http://www.inkscape.org/namespaces/inkscape"
   xmlns:sodipodi="http://sodipodi.sourceforge.net/DTD/sodipodi-0.dtd"
   xmlns="http://www.w3.org/2000/svg"
   xmlns:svg="http://www.w3.org/2000/svg">
  <sodipodi:namedview
     id="namedview7"
     pagecolor="#ffffff"
     bordercolor="#666666"
     borderopacity="1.0"
     inkscape:pageshadow="2"
     inkscape:pageopacity="0.0"
     inkscape:pagecheckerboard="0"
     inkscape:document-units="mm"
     showgrid="false"
     inkscape:zoom="0.4187009"
     inkscape:cx="185.09633"
     inkscape:cy="261.5232"
     inkscape:window-width="1296"
     inkscape:window-height="704"
     inkscape:window-x="0"
     inkscape:window-y="0"
     inkscape:window-maximized="1"
     inkscape:current-layer="layer1" />
  <defs
     id="defs2" />
  <g
     inkscape:label="Layer 1"
     inkscape:groupmode="layer"
     id="layer1"
     transform="translate(-56.51182,-78.860378)">
    <g
       id="g489"
       transform="translate(-0.81476489,-12.978677)">
      <path
         style="fill:#9117fd;stroke-width:0.352778"
         d="m 57.494809,193.8812 -0.168224,-0.44214 0.09065,-50.8 0.09065,-50.800005 h 52.034725 52.03472 v 51.152785 51.15278 l -51.95715,0.0894 -51.957153,0.0894 z M 153.46345,142.99184 V 99.952944 H 109.54262 65.62178 l -0.09077,42.686116 -0.09077,42.68611 0.168424,0.44235 0.168424,0.44235 43.843182,-0.0896 43.84318,-0.0896 z m -13.75833,34.6129 -1.05834,-0.49773 -4.40442,-4.44578 -4.40443,-4.44578 h -0.49526 -0.49526 l -2.80368,2.67861 -2.80367,2.67862 -2.35081,1.11116 -2.3508,1.11116 -3.35139,0.002 -3.35139,0.002 -2.29305,-1.09531 -2.29306,-1.09531 -3.07577,-2.78525 -3.07576,-2.78524 -7.977465,-8.37991 -7.977459,-8.3799 0.117115,-0.31366 0.117115,-0.31366 2.55663,-2.68352 2.556627,-2.68352 0.441985,-0.006 0.441981,-0.005 10.406941,10.56207 10.40695,10.56207 1.4993,0.43539 1.49931,0.43538 1.45769,-0.43673 1.45769,-0.43674 2.2803,-2.22492 2.28031,-2.22493 -0.36378,-0.65737 -0.36378,-0.65715 -19.52115,-19.49097 -19.521145,-19.49097 h -0.431499 -0.4315 l -0.09032,27.95764 -0.09032,27.95764 h -4.056944 -4.056945 v -34.47729 -34.4773 l 1.075823,-1.07577 1.075823,-1.07578 1.258935,-0.20429 1.258934,-0.2043 1.298061,0.61597 1.298061,0.61597 5.33675,5.59625 5.336748,5.59626 h 0.345761 0.345765 l 3.38467,-3.28416 3.38467,-3.28416 2.012362,-0.95189 2.01237,-0.95189 2.16489,-0.29607 2.16488,-0.29606 1.81998,0.3305 1.81997,0.33051 1.94027,0.8837 1.94028,0.88371 9.95871,10.10887 9.95871,10.10888 0.007,0.36106 0.007,0.36105 -2.8245,2.80794 -2.8245,2.80793 -9.37837,-9.4648 -9.37838,-9.46481 -1.49904,-0.6631 -1.49905,-0.6631 -1.06558,0.30561 -1.06557,0.3056 -0.84292,0.44809 -0.84293,0.44809 -2.38125,2.29435 -2.38125,2.29435 v 0.60113 0.60112 l 18.87967,18.74377 18.87966,18.74378 h 0.34459 0.34459 l 0.0903,-27.78125 0.0903,-27.78125 h 4.23333 4.23334 l 0.084,33.69028 0.084,33.69028 -0.43675,0.84793 -0.43675,0.84794 -0.91249,0.67721 -0.91248,0.6772 -1.38057,0.15518 -1.38057,0.15517 -1.05833,-0.49773 z"
         id="path493" />
      <path
         style="fill:#3bfc0a;stroke-width:0.352778"
         d="m 57.494809,193.8812 -0.168224,-0.44214 0.09065,-50.8 0.09065,-50.800005 h 52.034725 52.03472 v 51.152785 51.15278 l -51.95715,0.0894 -51.957153,0.0894 z M 153.46345,142.99184 V 99.952944 H 109.54262 65.62178 l -0.09077,42.686116 -0.09077,42.68611 0.168424,0.44235 0.168424,0.44235 43.843182,-0.0896 43.84318,-0.0896 z"
         id="path491" />
    </g>
  </g>
</svg>
